<?xml version="1.0" encoding="UTF-8"?>
<svg version="1.1" xmlns="http://www.w3.org/2000/svg" width="512" height="512">
<path d="M0 0 C6.52775418 0.57076846 12.52599771 1.73527103 18.8125 3.5625 C19.72845947 3.82426025 20.64441895 4.08602051 21.58813477 4.35571289 C27.73273423 6.17127072 33.5580656 8.40708729 39.4375 10.9375 C51.45135958 16.06553214 64.12923721 18.563519 76.84960938 21.30761719 C80.58854698 22.12934898 84.29420444 23.04096245 88 24 C82.3538755 19.69789949 82.3538755 19.69789949 76.5 15.6875 C75.2625 14.8521875 75.2625 14.8521875 74 14 C74 13.67 74 13.34 74 13 C74.64396729 12.96559814 75.28793457 12.93119629 75.95141602 12.89575195 C87.78317083 12.23093081 99.54218592 11.42232785 111.27734375 9.75390625 C112.46354309 9.58544945 112.46354309 9.58544945 113.67370605 9.41358948 C114.47280396 9.29990524 115.27190186 9.18622101 116.09521484 9.0690918 C130.90807607 6.9631986 145.46272387 5.50198731 160.4375 5.5 C161.16364502 5.49587097 161.88979004 5.49174194 162.63793945 5.48748779 C178.23314677 5.44696341 195.08029538 7.19087976 208.59033203 15.61523438 C214.32207923 18.99518084 218.02816633 20.58739055 224.6484375 19.0546875 C226.90433409 18.37187829 229.14711561 17.64430423 231.375 16.875 C233.63090328 16.15802733 235.88866672 15.44687569 238.1484375 14.7421875 C239.62062744 14.24501221 239.62062744 14.24501221 241.12255859 13.73779297 C244.18998781 12.951286 246.84669971 12.86965969 250 13 C251.23455296 16.49288155 251.23455296 16.49288155 250.19555664 18.73925781 C249.77137451 19.30483398 249.34719238 19.87041016 248.91015625 20.453125 C248.22856445 21.38125 248.22856445 21.38125 247.53320312 22.328125 C247.04787109 22.96234375 246.56253906 23.5965625 246.0625 24.25 C245.58103516 24.8996875 245.09957031 25.549375 244.60351562 26.21875 C243.41364358 27.82095394 242.20826972 29.41162434 241 31 C241.94101562 30.7834375 242.88203125 30.566875 243.8515625 30.34375 C245.71941406 29.92609375 245.71941406 29.92609375 247.625 29.5 C248.85476563 29.2215625 250.08453125 28.943125 251.3515625 28.65625 C254.67152228 28.05908379 257.63908451 27.87590466 261 28 C261.65515912 31.79694493 260.67724074 33.82416523 258.59375 36.8828125 C257.57398796 38.30518189 256.54229275 39.7190572 255.5 41.125 C254.46253065 42.53973093 253.43098476 43.95883043 252.40625 45.3828125 C251.94541016 46.00559082 251.48457031 46.62836914 251.00976562 47.27001953 C249.74795082 49.09797107 249.74795082 49.09797107 250 52 C250.48146484 53.37285156 250.48146484 53.37285156 250.97265625 54.7734375 C253.83702429 63.76951353 252.51728396 72.73082213 248.546875 81.12890625 C244.27366758 89.0602382 239.30933777 96.11890682 233.50390625 103.00390625 C231.79941696 104.84969094 231.79941696 104.84969094 232 107 C232.825 107.556875 233.65 108.11375 234.5 108.6875 C237 111 237 111 237.5 114.5 C236.99547945 118.03164382 236.54390044 119.55394189 234 122 C233.34 122 232.68 122 232 122 C231.9175 123.03125 231.835 124.0625 231.75 125.125 C230.92246259 129.40060997 229.61636835 131.56134445 227 135 C226.443125 135.804375 225.88625 136.60875 225.3125 137.4375 C221.95628629 141.15654762 218.01415546 144.02369243 214 147 C215.11117188 147.30292969 216.22234375 147.60585938 217.3671875 147.91796875 C237.55265213 153.55265213 237.55265213 153.55265213 243 159 C243.4375 161.875 243.4375 161.875 243 165 C219.7984883 186.9171423 158.0152054 178.29457557 128.32843018 178.19561768 C124.18296259 178.18468627 120.03752741 178.18515274 115.89204788 178.18575573 C111.85639533 178.18548307 107.82076367 178.17999009 103.7851181 178.17275429 C101.87952582 178.16960372 99.97393122 178.16760881 98.06833649 178.16686058 C70.77157403 178.14432898 70.77157403 178.14432898 64.9609375 174.50390625 C59.78986094 171.68101373 55.4501321 171.17305124 49.625 170.9375 C47.46199146 170.8074484 45.29924874 170.67293646 43.13671875 170.53515625 C41.27539307 170.42131592 41.27539307 170.42131592 39.37646484 170.30517578 C31.06597619 169.75484617 22.7747887 168.9265522 14.48236084 168.15725708 C11.44823651 167.87599527 8.41386637 167.59755393 5.37939453 167.32006836 C0.58610898 166.88170756 -4.2069955 166.4414229 -9 166 C-8.51394287 166.77649902 -8.02788574 167.55299805 -7.52709961 168.35302734 C-5.9510449 171.0848555 -5.56783348 172.52091598 -5.5625 175.625 C-5.54316406 176.38039063 -5.52382812 177.13578125 -5.50390625 177.9140625 C-6 180 -6 180 -7.7421875 181.703125 C-19.01333819 188.17721155 -36.16042344 186.20440948 -48.75 186.1875 C-49.58258331 186.18689575 -50.41516663 186.1862915 -51.27297974 186.18566895 C-73.20447265 186.14281307 -94.92249496 184.80453752 -116.6875 182.0625 C-118.57553345 181.82611816 -118.57553345 181.82611816 -120.50170898 181.58496094 C-138.71278434 179.14360783 -138.71278434 179.14360783 -145 176 C-147.44938821 175.89954258 -149.86343544 175.85909698 -152.3125 175.875 C-153.02148438 175.87693359 -153.73046875 175.87886719 -154.4609375 175.88085938 C-161.00072254 175.93350523 -167.49020176 176.37577277 -174 177 C-174 180.25173191 -171.77755576 182.36059902 -170 185 C-167.95612601 191.13162197 -167.93121964 198.53395527 -169.8359375 204.7109375 C-172.95499997 210.84439592 -177.636778 215.10371036 -183.94140625 217.84375 C-198.00841895 222.16331754 -211.95946078 213.24471762 -224.0625 206.9375 C-236.05837459 200.1325008 -246.55732934 191.32801199 -251 178 C-251.96712829 167.43504158 -251.41748136 158.93714323 -245 150 C-242.77402582 147.64517702 -240.64501904 145.90441371 -238 144 C-241.63 143.67 -245.26 143.34 -249 143 C-248 141 -248 141 -245.93725586 140.26977539 C-244.58966187 139.93707642 -244.58966187 139.93707642 -243.21484375 139.59765625 C-242.21590088 139.34846436 -241.21695801 139.09927246 -240.18774414 138.8425293 C-238.57887329 138.45641479 -238.57887329 138.45641479 -236.9375 138.0625 C-235.85525146 137.79671143 -234.77300293 137.53092285 -233.65795898 137.25708008 C-226.06228953 135.41944538 -218.45787455 133.84671723 -210.75390625 132.54296875 C-208.09954862 132.28520496 -208.09954862 132.28520496 -207 131 C-207.99 130.01 -207.99 130.01 -209 129 C-204.31937189 128.10037175 -199.72959146 127.79504376 -194.9765625 127.68359375 C-194.23038666 127.66281265 -193.48421082 127.64203156 -192.71542358 127.62062073 C-190.35203492 127.5556877 -187.98854336 127.49650429 -185.625 127.4375 C-184.01431265 127.39426116 -182.40363537 127.35064523 -180.79296875 127.30664062 C-176.86208229 127.20006474 -172.93109323 127.09864208 -169 127 C-171.97 125.68 -174.94 124.36 -178 123 C-178 122.67 -178 122.34 -178 122 C-169.47006778 122.3697579 -161.12106339 123.16398199 -152.6875 124.5 C-151.85758545 124.63059814 -151.0276709 124.76119629 -150.17260742 124.89575195 C-144.27092241 125.8645388 -144.27092241 125.8645388 -142 127 C-141.93006836 126.40799805 -141.86013672 125.81599609 -141.78808594 125.20605469 C-137.44751512 88.9881085 -131.12031415 56.06416576 -101 32 C-79.01806968 16.34319285 -54.22687326 11.59301459 -28 8 C-28.825 7.54625 -29.65 7.0925 -30.5 6.625 C-31.325 6.08875 -32.15 5.5525 -33 5 C-33 4.34 -33 3.68 -33 3 C-19.49409357 3.44762433 -6.34497353 4.88870568 7 7 C6.24203125 6.36771484 6.24203125 6.36771484 5.46875 5.72265625 C4.49421875 4.90087891 4.49421875 4.90087891 3.5 4.0625 C2.52546875 3.24458984 2.52546875 3.24458984 1.53125 2.41015625 C1.0259375 1.94480469 0.520625 1.47945312 0 1 C0 0.67 0 0.34 0 0 Z M197.25 75.1875 C195.7634446 76.97604877 195.7634446 76.97604877 196 79.5 C197.33756706 82.84391766 198.83241082 83.34658807 202 85 C204.14242798 85.81666809 206.31192986 86.56495 208.5 87.25 C209.6034375 87.60578125 210.706875 87.9615625 211.84375 88.328125 C215.02812801 89.00598765 216.90780122 88.8999683 220 88 C220.76716851 85.14921909 220.76716851 85.14921909 221 82 C218.5783294 78.21794871 214.06886173 77.51071462 210 76.3125 C209.27554687 76.08755859 208.55109375 75.86261719 207.8046875 75.63085938 C202.39552631 73.67006081 202.39552631 73.67006081 197.25 75.1875 Z " fill="#000000" transform="translate(251,193)"/>
<path d="M0 0 C2.05321925 7.40077221 1.93572275 12.91748351 0.04296875 20.3125 C-0.17944992 21.24803711 -0.40186859 22.18357422 -0.63102722 23.14746094 C-1.33892778 26.10335872 -2.07543461 29.05125591 -2.8125 32 C-3.29676504 34.00867111 -3.77920435 36.01778332 -4.25976562 38.02734375 C-5.1413225 41.68240107 -6.02705533 45.33621313 -6.93676758 48.984375 C-7.1182283 49.71366211 -7.29968903 50.44294922 -7.48664856 51.19433594 C-8 53 -8 53 -9 55 C-7.73542969 54.71125 -6.47085937 54.4225 -5.16796875 54.125 C-3.50785045 53.74983202 -1.8476921 53.37484124 -0.1875 53 C0.64587891 52.80921875 1.47925781 52.6184375 2.33789062 52.421875 C3.14033203 52.24140625 3.94277344 52.0609375 4.76953125 51.875 C5.50792236 51.70742187 6.24631348 51.53984375 7.00708008 51.3671875 C9 51 9 51 12 51 C12.495 55.95 12.495 55.95 13 61 C8.76481969 61.99973046 4.52897312 62.99657193 0.29248047 63.99072266 C-1.14911334 64.32944362 -2.59052092 64.66895819 -4.03173828 65.00927734 C-6.10140499 65.49784973 -8.17172111 65.98357927 -10.2421875 66.46875 C-12.11173096 66.90864258 -12.11173096 66.90864258 -14.01904297 67.35742188 C-17 68 -17 68 -19 68 C-22.96617859 57.13515152 -18.97484332 46.65874646 -16.125 36 C-15.39331714 33.18150566 -14.66790343 30.3614764 -13.9447937 27.54077148 C-13.49493334 25.79512705 -13.03888441 24.05106297 -12.57595825 22.30883789 C-12.36929535 21.52371826 -12.16263245 20.73859863 -11.94970703 19.9296875 C-11.7660257 19.24116699 -11.58234436 18.55264648 -11.39309692 17.84326172 C-10.89571432 15.82511507 -10.89571432 15.82511507 -11 13 C-11.88042969 13.22816406 -12.76085937 13.45632812 -13.66796875 13.69140625 C-14.82941406 13.97886719 -15.99085938 14.26632813 -17.1875 14.5625 C-18.33605469 14.85253906 -19.48460937 15.14257812 -20.66796875 15.44140625 C-23.88480093 15.98068761 -25.89672783 15.88247476 -29 15 C-29.33 12.36 -29.66 9.72 -30 7 C-4.30964467 0 -4.30964467 0 0 0 Z " fill="#000000" transform="translate(346,100)"/>
<path d="M0 0 C3.37174587 9.1688775 0.42337215 16.4547489 -2.875 25.125 C-3.36815199 26.47573713 -3.85905693 27.82729688 -4.34765625 29.1796875 C-5.5393456 32.46301396 -6.7610592 35.73416479 -8 39 C-7.09636719 38.7834375 -6.19273437 38.566875 -5.26171875 38.34375 C-4.08222656 38.0653125 -2.90273438 37.786875 -1.6875 37.5 C-0.51574219 37.2215625 0.65601563 36.943125 1.86328125 36.65625 C5 36 5 36 8 36 C8.66 38.97 9.32 41.94 10 45 C0.71402654 47.42755144 -8.4858532 49.63053948 -18 51 C-19.6024637 44.38983725 -19.24029683 38.82252829 -17.03125 32.41015625 C-16.62519531 31.21455078 -16.21914063 30.01894531 -15.80078125 28.78710938 C-15.37152344 27.55798828 -14.94226563 26.32886719 -14.5 25.0625 C-14.06543087 23.79395351 -13.63182805 22.52507556 -13.19921875 21.25585938 C-12.14225765 18.16718417 -11.07561389 15.08221863 -10 12 C-10.61415771 12.1429248 -11.22831543 12.28584961 -11.86108398 12.43310547 C-12.66876221 12.61760254 -13.47644043 12.80209961 -14.30859375 12.9921875 C-15.10837646 13.1763623 -15.90815918 13.36053711 -16.73217773 13.55029297 C-19.19831083 14.03932485 -21.49129252 14.1618521 -24 14 C-25.49821059 10.62902617 -26 8.79557881 -26 5 C-22.4182952 4.15956003 -18.83439357 3.32889101 -15.25 2.5 C-14.23421875 2.26152344 -13.2184375 2.02304688 -12.171875 1.77734375 C-11.1921875 1.55175781 -10.2125 1.32617188 -9.203125 1.09375 C-8.30239258 0.88427734 -7.40166016 0.67480469 -6.47363281 0.45898438 C-4 0 -4 0 0 0 Z " fill="#000000" transform="translate(410,102)"/>
<path d="M0 0 C1.97078555 6.15870483 1.0255519 11.79798941 -0.96875 17.80859375 C-1.37480469 19.04931641 -1.78085937 20.29003906 -2.19921875 21.56835938 C-2.63258787 22.85814841 -3.06618442 24.14786106 -3.5 25.4375 C-3.93454051 26.75424523 -4.36814316 28.07130035 -4.80078125 29.38867188 C-5.85801454 32.59561286 -6.92466315 35.79909336 -8 39 C-7.18015625 38.7834375 -6.3603125 38.566875 -5.515625 38.34375 C-4.43796875 38.0653125 -3.3603125 37.786875 -2.25 37.5 C-1.18265625 37.2215625 -0.1153125 36.943125 0.984375 36.65625 C4 36 4 36 8 36 C8.495 40.455 8.495 40.455 9 45 C4.87588361 46.00366845 0.75056731 47.00231379 -3.375 48 C-4.550625 48.28617188 -5.72625 48.57234375 -6.9375 48.8671875 C-8.05898438 49.13789063 -9.18046875 49.40859375 -10.3359375 49.6875 C-11.37282715 49.93886719 -12.4097168 50.19023437 -13.47802734 50.44921875 C-16 51 -16 51 -18 51 C-21.46011092 41.69072003 -18.35713907 34.18325975 -15.125 25.375 C-14.6318808 23.9760458 -14.14097595 22.576309 -13.65234375 21.17578125 C-12.46029685 17.7744501 -11.2386133 14.38469392 -10 11 C-11.12148438 11.32484375 -11.12148438 11.32484375 -12.265625 11.65625 C-13.25046875 11.9346875 -14.2353125 12.213125 -15.25 12.5 C-16.22453125 12.7784375 -17.1990625 13.056875 -18.203125 13.34375 C-21 14 -21 14 -25 14 C-25.33 11.03 -25.66 8.06 -26 5 C-22.60641656 4.15731913 -19.20980915 3.32752099 -15.8125 2.5 C-14.85279297 2.26152344 -13.89308594 2.02304688 -12.90429688 1.77734375 C-11.97294922 1.55175781 -11.04160156 1.32617188 -10.08203125 1.09375 C-9.22843018 0.88427734 -8.3748291 0.67480469 -7.49536133 0.45898438 C-4.94053693 -0.01093734 -2.59155241 -0.08117627 0 0 Z " fill="#000000" transform="translate(380,109)"/>
<path d="M0 0 C0.66 3.63 1.32 7.26 2 11 C-1.3 11.66 -4.6 12.32 -8 13 C-8.66 9.37 -9.32 5.74 -10 2 C-2.25 0 -2.25 0 0 0 Z " fill="#000000" transform="translate(433,133)"/>
<path d="M0 0 C0.66 3.3 1.32 6.6 2 10 C-1.61973402 11.31626692 -4.09567131 12 -8 12 C-9.62950412 7.87831311 -10.26264601 5.29299643 -9 1 C-5.72921858 0.03087958 -3.60964568 0 0 0 Z " fill="#000000" transform="translate(466,126)"/>
<path d="M0 0 C3.15771423 3.15771423 2.62506773 6.62579022 3 11 C0.03 11.66 -2.94 12.32 -6 13 C-7.80230168 9.17010894 -8.19622241 6.21878192 -8 2 C-6.71254964 1.61077082 -5.41980403 1.23901964 -4.125 0.875 C-3.04605469 0.56175781 -3.04605469 0.56175781 -1.9453125 0.2421875 C-1.30335938 0.16226563 -0.66140625 0.08234375 0 0 Z " fill="#000000" transform="translate(448,129)"/>
</svg>
